<svg width="68" height="55" viewBox="0 0 68 55" fill="none" xmlns="http://www.w3.org/2000/svg">
<g clip-path="url(#clip0_4_15)">
<path d="M59.7544 -0.0541762C57.9161 -0.0811812 53.646 0.538559 46.5165 5.2773C42.6308 4.31288 38.4964 3.83696 34.355 3.83696C29.7982 3.83696 25.1933 4.4116 20.899 5.58151C10.663 -1.35328 6.14496 0.0678688 6.14496 0.0678688C3.1954 7.39293 5.01809 12.8162 5.57209 14.1631C2.10531 17.8788 -0.0110779 22.6236 -0.0110779 28.4388C-0.0110779 32.8291 0.492072 36.7667 1.72134 40.1898C1.78952 40.4539 1.76742 40.395 1.88228 40.6212C2.1531 41.3298 2.45422 42.0176 2.79266 42.6819C2.90863 42.921 3.01419 43.0979 3.01419 43.0979C6.46978 49.4948 13.2819 53.627 25.4022 54.9244L43.7336 54.9451C56.6594 53.6721 62.8619 49.5276 65.7201 43.0875L65.9018 42.6682C66.1726 42.0176 66.4087 41.3408 67.0545 39.0623C67.7002 36.7838 67.989 32.8378 67.989 28.4371C67.989 22.1256 65.6021 17.0754 61.7257 13.2332C62.4031 11.0618 63.308 6.23953 60.8223 0.0661088C60.8223 0.0661088 60.4737 -0.0436162 59.7544 -0.0542312L59.7544 -0.0541762ZM45.3084 23.1073C48.2931 23.1009 50.8498 23.6098 52.7694 25.6098V25.6115C55.1713 28.1162 56.5769 31.1403 56.5769 34.3993C56.5769 49.6154 46.7225 50.0293 34.5679 50.0293C22.4111 50.0293 12.5589 47.9208 12.5589 34.3993C12.5589 31.1619 13.9439 28.1559 16.3162 25.6613C20.2733 21.5038 26.9698 23.7054 34.5679 23.7054C38.4681 23.7048 42.1312 23.1141 45.3085 23.1073L45.3084 23.1073ZM22.6677 27.5881C20.1386 27.5881 18.0883 30.9838 18.0883 35.1745C18.0883 39.3659 20.1385 42.7627 22.6677 42.7627C25.1968 42.7627 27.2471 39.3659 27.2471 35.1745C27.2471 30.9844 25.1969 27.5911 22.6677 27.5881ZM47.238 27.5881C44.709 27.5881 42.6586 30.9838 42.6586 35.1745C42.6586 39.3659 44.7088 42.7627 47.238 42.7627C49.7671 42.7627 51.8175 39.3659 51.8175 35.1745C51.8175 30.9844 49.7673 27.5911 47.238 27.5881Z" fill="#203760"/>
</g>
<defs>
<clipPath id="clip0_4_15">
<rect width="68" height="55" fill="white"/>
</clipPath>
</defs>
</svg>
