<svg width="32" height="32" viewBox="0 0 32 32" fill="none" xmlns="http://www.w3.org/2000/svg">
<path d="M18.0587 13.9413C16.9666 12.8496 15.4856 12.2364 13.9414 12.2364C12.3972 12.2364 10.9162 12.8496 9.82403 13.9413L5.70536 18.0587C4.6132 19.1508 3.99963 20.6321 3.99963 22.1767C3.99963 23.7212 4.6132 25.2025 5.70536 26.2947C6.79753 27.3868 8.27882 28.0004 9.82336 28.0004C11.3679 28.0004 12.8492 27.3868 13.9414 26.2947L16 24.236" stroke="white" stroke-width="2" stroke-linecap="round" stroke-linejoin="round"/>
<path d="M13.9414 18.0587C15.0335 19.1504 16.5145 19.7636 18.0587 19.7636C19.6029 19.7636 21.0839 19.1504 22.1761 18.0587L26.2947 13.9413C27.3869 12.8492 28.0005 11.3679 28.0005 9.82333C28.0005 8.27878 27.3869 6.7975 26.2947 5.70533C25.2026 4.61317 23.7213 3.9996 22.1767 3.9996C20.6322 3.9996 19.1509 4.61317 18.0587 5.70533L16.0001 7.764" stroke="white" stroke-width="2" stroke-linecap="round" stroke-linejoin="round"/>
</svg>
