<svg width="32" height="32" viewBox="0 0 32 32" fill="none" xmlns="http://www.w3.org/2000/svg">
<path d="M31.5241 6.58266C30.4107 7.076 29.2147 7.40933 27.9574 7.56C29.2547 6.78372 30.2253 5.56195 30.6881 4.12267C29.4692 4.84665 28.1352 5.35626 26.7441 5.62933C25.8086 4.63049 24.5695 3.96843 23.2192 3.74596C21.8688 3.52349 20.4829 3.75305 19.2764 4.399C18.0699 5.04495 17.1104 6.07115 16.5469 7.31827C15.9834 8.56539 15.8474 9.96366 16.1601 11.296C13.6903 11.172 11.2742 10.5301 9.06862 9.41187C6.86302 8.29368 4.91718 6.72421 3.35739 4.80533C2.82406 5.72533 2.51739 6.792 2.51739 7.928C2.51679 8.95066 2.76863 9.95765 3.25056 10.8596C3.73249 11.7616 4.4296 12.5307 5.28006 13.0987C4.29376 13.0673 3.32922 12.8008 2.46672 12.3213V12.4013C2.46662 13.8357 2.96277 15.2258 3.87097 16.336C4.77917 17.4462 6.04349 18.2079 7.44939 18.492C6.53443 18.7396 5.57517 18.7761 4.64406 18.5987C5.04072 19.8328 5.81338 20.912 6.85388 21.6852C7.89438 22.4584 9.15061 22.8869 10.4467 22.9107C8.2465 24.6379 5.52924 25.5748 2.73206 25.5707C2.23656 25.5708 1.74149 25.5419 1.24939 25.484C4.08869 27.3096 7.39384 28.2784 10.7694 28.2747C22.1961 28.2747 28.4427 18.8107 28.4427 10.6027C28.4427 10.336 28.4361 10.0667 28.4241 9.8C29.6391 8.9213 30.6879 7.83319 31.5214 6.58666L31.5241 6.58266V6.58266Z" fill="white"/>
</svg>
